# xmcd
#
# Track frame offsets:
#	150
#	14674
#	29242
#	42955
#	56186
#	68918
#	83655
#	100309
#	113211
#	126539
#	139632
#	153738
#	167934
#	180172
#	194172
#	206814
#	221086
#	235361
#	245127
#	258802
#	270432
#	284216
#	295176
#	306480
#
# Disc length: 4229 seconds
#
# Revision: 0
# Processed by: cddbd v1.5.2PL0 Copyright (c) Steve Scherf et al.
# Submitted via: EasyCDDAExtractor 10.0.5.1
#
DISCID=8b108318
DTITLE=The Blues Sky Boys - The Blue Sky Boys - Disc B (Charlotte, NC and Rock H
DTITLE=ill, SC (1937-38)
DYEAR=2007
DGENRE=Country
TTITLE0=Sing A Song For The Blind
TTITLE1=Within The Circle
TTITLE2=They're All Home But One
TTITLE3=Hymns My Mother Sang
TTITLE4=Have No Desire To Roam
TTITLE5=No Disappointment In Heaven
TTITLE6=Story Of The Knoxville Girl
TTITLE7=On The Old Plantation
TTITLE8=In My Little Home In Tennessee
TTITLE9=Beautiful, Beautiful Brown Eyes
TTITLE10=The Prisoner's Dream
TTITLE11=The Answer To The Prisoner's Dream
TTITLE12=When The Stars Begin To Fall
TTITLE13=We Buried Her
TTITLE14=Heaven Holds All For Me
TTITLE15=Little Bessie
TTITLE16=I Need The Prayers
TTITLE17=Old Fashioned Meeting
TTITLE18=Katie Dear
TTITLE19=Who Wouldn't Be Lonely
TTITLE20=Life Line
TTITLE21=When The Valley Moon Was Low
TTITLE22=My Last Letter
TTITLE23=Mother Went Her Holiness Way
EXTD=
EXTT0=
EXTT1=
EXTT2=
EXTT3=
EXTT4=
EXTT5=
EXTT6=
EXTT7=
EXTT8=
EXTT9=
EXTT10=
EXTT11=
EXTT12=
EXTT13=
EXTT14=
EXTT15=
EXTT16=
EXTT17=
EXTT18=
EXTT19=
EXTT20=
EXTT21=
EXTT22=
EXTT23=
PLAYORDER=
